<svg width="103" height="17" viewBox="0 0 103 17" fill="none" xmlns="http://www.w3.org/2000/svg">
<g clip-path="url(#clip0_619_17)">
<path d="M46.0544 4.90728L48.2015 3.30811H41.0133V12.8875H48.2015V11.2883H43.0671V8.8425H47.4547V7.24333H43.0671V4.90728H46.0544Z" fill="white"/>
<path d="M35.5832 7.03951H33.0938V4.90728H37.0769L39.224 3.30811H31.04V12.8875H35.3187C37.7148 12.8875 39.0995 11.79 39.0995 9.87726C39.0995 8.04291 37.8548 7.03951 35.5832 7.03951ZM35.2409 11.2883H33.0938V8.63869H35.2409C36.5479 8.63869 37.1547 9.07767 37.1547 9.97133C37.1547 10.865 36.5012 11.2883 35.2409 11.2883Z" fill="white"/>
<path d="M54.0206 3.30811H50.1154V12.8875H52.1691V10.1751H54.0362C56.5256 10.1751 58.0815 8.85818 58.0815 6.74163C58.0815 4.62507 56.5256 3.30811 54.0206 3.30811ZM53.974 8.57597H52.1536V4.90728H53.974C55.2965 4.90728 56.0122 5.56576 56.0122 6.74163C56.0122 7.91749 55.2965 8.57597 53.974 8.57597Z" fill="white"/>
<path d="M27.5237 10.8178C26.9792 11.1157 26.3724 11.2725 25.75 11.2725C23.8985 11.2725 22.5604 9.93991 22.5604 8.10557C22.5604 6.27122 23.8985 4.93858 25.75 4.93858C26.419 4.9229 27.0725 5.14239 27.6171 5.53435L29.0952 4.43687L29.0018 4.3428C28.1461 3.57457 26.9947 3.18262 25.6878 3.18262C24.2719 3.18262 22.9805 3.66864 22.047 4.54662C21.1134 5.45596 20.5844 6.72589 20.6156 8.04285C20.6 9.3755 21.1134 10.6611 22.047 11.6017C23.0272 12.5268 24.3341 13.0441 25.6722 13.0128C27.1503 13.0128 28.4417 12.4954 29.313 11.5547L27.9905 10.567L27.5237 10.8178Z" fill="white"/>
<path d="M82.7734 3.32379V12.9031H84.8272V8.9836H89.1992V12.9031H91.253V3.32379H89.1992V7.25901H84.8272V3.32379H82.7734ZM79.2415 12.9031H81.4042L77.39 3.32379H75.3051L71.2131 12.9031H73.2825L74.1071 10.9747H78.4636L79.2415 12.9031ZM74.7295 9.37556L76.3165 5.53441L77.8101 9.37556H74.7295ZM95.8585 9.03064H97.1343L100.277 12.8875H102.922L98.7213 7.93317L102.393 3.30811H100.044L96.9943 7.41579H95.8585V3.30811H93.8047V12.8875H95.8585V9.03064ZM64.4295 7.05519V4.92296H69.7973V3.32379H62.3757V12.9031H66.6544C69.0505 12.9031 70.4352 11.8057 70.4352 9.89294C70.4352 8.05859 69.1905 7.05519 66.9189 7.05519H64.4295ZM64.4295 11.304V8.65436H66.5766C67.8835 8.65436 68.4903 9.09335 68.4903 9.98701C68.4903 10.8807 67.8524 11.3196 66.5766 11.3196H64.4295V11.304Z" fill="white"/>
<path d="M14.1897 3.24536C14.5631 3.73139 14.8743 4.26445 15.1388 4.82886L7.95056 10.1751L4.93213 8.26238V5.97337L7.935 7.87042L14.1897 3.24536Z" fill="white"/>
<path d="M1.86702 8.10564C1.86702 7.99589 1.86702 7.90182 1.88258 7.79207L0.0621898 7.698C0.0621898 7.82343 0.0466309 7.96453 0.0466309 8.08996C0.0466309 10.2849 0.933489 12.276 2.3649 13.7184L3.65629 12.4171C2.55161 11.3196 1.86702 9.79888 1.86702 8.10564Z" fill="url(#paint0_linear_619_17)"/>
<path d="M7.93508 1.99108C8.04399 1.99108 8.13735 1.99108 8.24626 2.00676L8.33961 0.172416C8.21514 0.172416 8.07511 0.156738 7.95064 0.156738C5.77239 0.156738 3.79641 1.05039 2.36499 2.49278L3.65638 3.79407C4.7455 2.68092 6.27028 1.99108 7.93508 1.99108Z" fill="white"/>
<path d="M7.93505 14.22C7.82614 14.22 7.73278 14.22 7.62387 14.2043L7.53052 16.0387C7.65499 16.0387 7.79502 16.0543 7.91949 16.0543C10.0977 16.0543 12.0737 15.1607 13.5051 13.7183L12.2137 12.417C11.1246 13.5458 9.61541 14.22 7.93505 14.22Z" fill="url(#paint1_linear_619_17)"/>
<path d="M11.358 3.05726L12.8983 1.91275C11.5447 0.815274 9.81769 0.141113 7.93506 0.141113V1.97546C9.21089 1.99114 10.3934 2.38309 11.358 3.05726Z" fill="white"/>
<path d="M15.839 8.10567C15.839 7.61965 15.7923 7.14931 15.7145 6.67896L14.0186 7.94889C14.0186 7.99593 14.0186 8.05864 14.0186 8.10567C14.0186 9.90866 13.2406 11.5236 12.0115 12.6367L13.2406 14.0007C14.8276 12.5583 15.839 10.4418 15.839 8.10567Z" fill="white"/>
<path d="M7.93511 14.22C6.14584 14.22 4.54327 13.4361 3.43859 12.1975L2.08496 13.4361C3.53194 15.0509 5.61683 16.0543 7.93511 16.0543V14.22Z" fill="url(#paint2_linear_619_17)"/>
<path d="M3.87412 3.5747L2.64497 2.21069C1.0424 3.66876 0.0466309 5.76964 0.0466309 8.10569H1.86702C1.86702 6.31837 2.64497 4.68785 3.87412 3.5747Z" fill="url(#paint3_linear_619_17)"/>
</g>
<defs>
<linearGradient id="paint0_linear_619_17" x1="2.17065" y1="13.4952" x2="0.311943" y2="8.08131" gradientUnits="userSpaceOnUse">
<stop offset="0.1444" stop-color="white"/>
<stop offset="0.3037" stop-color="white"/>
<stop offset="0.5823" stop-color="white"/>
<stop offset="0.891" stop-color="white"/>
</linearGradient>
<linearGradient id="paint1_linear_619_17" x1="7.42363" y1="14.4943" x2="13.0491" y2="13.2132" gradientUnits="userSpaceOnUse">
<stop offset="0.1226" stop-color="white"/>
<stop offset="0.2846" stop-color="white"/>
<stop offset="0.8693" stop-color="white"/>
</linearGradient>
<linearGradient id="paint2_linear_619_17" x1="2.54782" y1="13.7267" x2="7.57163" y2="15.6182" gradientUnits="userSpaceOnUse">
<stop offset="0.1324" stop-color="white"/>
<stop offset="0.2977" stop-color="white"/>
<stop offset="0.5306" stop-color="white"/>
<stop offset="0.8023" stop-color="white"/>
<stop offset="0.9829" stop-color="white"/>
</linearGradient>
<linearGradient id="paint3_linear_619_17" x1="1.44145" y1="8.32725" x2="3.45089" y2="3.0599" gradientUnits="userSpaceOnUse">
<stop offset="0.0698" stop-color="white"/>
<stop offset="0.2599" stop-color="white"/>
<stop offset="0.9216" stop-color="white"/>
</linearGradient>
<clipPath id="clip0_619_17">
<rect width="103" height="17" fill="white"/>
</clipPath>
</defs>
</svg>
