<svg width="201" height="26" viewBox="0 0 201 26" fill="none" xmlns="http://www.w3.org/2000/svg">
<g clip-path="url(#clip0_620_32)">
<path d="M12.826 20.53C8.601 20.53 5.159 17.14 5.159 12.978C5.159 8.81603 8.6 5.42503 12.824 5.42503H13.304V0.832031H12.825C6.032 0.832031 0.5 6.28303 0.5 12.977C0.5 19.715 6.032 25.166 12.826 25.166H13.305V20.532H12.826V20.53Z" fill="white"/>
<path fill-rule="evenodd" clip-rule="evenodd" d="M15.3081 7.40039V1.0918C20.9709 2.20703 25.1951 7.09961 25.1951 12.9785C25.1951 18.9023 20.969 23.793 15.3081 24.8672V18.5586H12.825C9.68994 18.5586 7.16406 16.0684 7.16406 12.9805C7.16406 9.89062 9.68994 7.40039 12.8262 7.40039H15.3081ZM39.0891 18.4707C40.373 18.4746 41.6179 18.0352 42.616 17.2266L44.5759 19.1602C43.1389 20.4453 41.2229 21.2188 39.0891 21.2188C34.4719 21.2188 30.77 17.4844 30.77 12.9785C30.77 8.47266 34.4719 4.78125 39.0891 4.78125C41.1631 4.77539 43.165 5.54102 44.707 6.92773L42.7471 8.85742C41.7361 7.96875 40.4351 7.48047 39.0891 7.48633C35.9951 7.48633 33.5139 9.93164 33.5139 12.9785C33.5139 16.0254 35.9961 18.4707 39.0891 18.4707ZM125.109 12.7207L131.25 5.42578H133.689V20.5312H131.25V9.63086L125.109 16.7539L118.881 9.45898V20.5332H116.398V5.42578H118.881V5.51172L118.924 5.42578L125.109 12.7207ZM54.855 21.1758C59.428 21.1758 63.1741 17.5273 63.1741 12.9785C63.1741 8.47266 59.428 4.78125 54.855 4.78125C50.282 4.78125 46.5371 8.47266 46.5371 12.9785C46.5371 17.4844 50.239 21.1758 54.855 21.1758ZM54.812 7.48633C57.905 7.48633 60.387 9.93164 60.387 12.9785C60.387 16.0254 57.905 18.4707 54.812 18.4707C51.719 18.4707 49.2371 16.0254 49.2371 12.9785C49.2371 9.93164 51.719 7.48633 54.812 7.48633ZM105.553 21.1758C110.126 21.1758 113.872 17.5273 113.872 12.9785C113.872 8.47266 110.169 4.78125 105.553 4.78125C100.98 4.78125 97.2341 8.47266 97.2341 12.9785C97.2341 17.4844 100.936 21.1758 105.553 21.1758ZM105.553 7.48633C108.646 7.48633 111.128 9.93164 111.128 12.9785C111.128 16.0254 108.601 18.4707 105.553 18.4707C102.46 18.4707 99.978 16.0254 99.978 12.9785C99.978 9.93164 102.46 7.48633 105.553 7.48633ZM93.8359 5.42578H97.1909L89.6121 13.0215L97.103 20.5332H93.793L87.4771 14.2227H84.9519V20.5332H82.5129V5.42578H84.9519V11.7773H87.522L93.8359 5.42578ZM197.192 5.42578H200.5L192.965 13.0215L200.413 20.5332H197.103L190.832 14.2227H188.262V20.5332H185.823V5.42578H188.262V11.7773H190.832L197.192 5.42578ZM167.139 20.5312H164.437L162.958 17.2715H155.03L153.55 20.5332H150.85L157.6 5.42578H160.387L167.139 20.5312ZM158.994 8.51562L156.12 14.8672H161.869L158.994 8.51562ZM77.9829 12.9785C78.8711 13.7949 79.377 14.9473 79.377 16.1543C79.377 18.5566 77.417 20.5332 74.9771 20.5762H66.0061V5.42578H74.9771C77.3999 5.42188 79.3689 7.38086 79.377 9.80273C79.377 11.0469 78.8101 12.1641 77.9829 12.9785ZM74.9341 7.87305H68.488V11.7324H74.9341C76.0229 11.7324 76.8931 10.875 76.8931 9.80273C76.8931 8.72852 76.0229 7.87305 74.9341 7.87305ZM68.488 18.1289H74.9341C76.0239 18.1289 76.894 17.2266 76.937 16.1562C76.937 15.6465 76.7236 15.168 76.376 14.8145C76.0212 14.4551 75.5269 14.2246 74.9771 14.2246H68.488V18.1289ZM180.292 11.7773V5.46875H182.775V20.4883H180.292V14.2207H171.364V20.4883H168.882V5.46875H171.364V11.7773H180.292ZM145.535 11.7773C147.974 11.7773 149.978 13.75 149.978 16.1543C149.978 18.5566 147.975 20.5332 145.534 20.5742H136.606V5.42578H148.497V7.87109H139.089V11.7773H145.535ZM139.09 18.1289H145.536C146.625 18.1289 147.496 17.2266 147.496 16.1562C147.496 15.125 146.625 14.2246 145.536 14.2246H139.09V18.1289Z" fill="white"/>
</g>
<defs>
<clipPath id="clip0_620_32">
<rect width="201" height="26" fill="white"/>
</clipPath>
</defs>
</svg>
