<svg width="159" height="30" viewBox="0 0 159 30" fill="none" xmlns="http://www.w3.org/2000/svg">
<path d="M66.7448 10.5254C64.662 10.5254 63.1041 11.2962 62.3334 12.571H62.1669V10.9171H58.3594V28.4359H62.1669V22.8824H62.3334C63.0998 24.1572 64.662 24.928 66.7448 24.928C70.6522 24.928 73.7514 21.7366 73.7514 17.7246C73.7514 13.7168 70.6522 10.5254 66.7448 10.5254ZM65.9742 21.4617C63.8497 21.4617 62.1669 19.8077 62.1669 17.7246C62.1669 15.6206 63.8497 13.9875 65.9742 13.9875C68.1612 13.9875 69.8232 15.6206 69.8232 17.7246C69.8232 19.8285 68.1402 21.4617 65.9742 21.4617Z" fill="#3B175C"/>
<path d="M151.904 11.5531C149.725 11.5531 148.021 12.3781 146.984 13.8113H146.813C147.096 11.2199 148.563 9.96166 151.72 9.51175L157.248 8.71179V5.20801L151.354 6.04549C145.91 6.8037 143.298 9.68666 143.298 14.882C143.298 18.6398 143.539 19.8273 144.209 21.2479C145.264 23.5269 147.876 24.9267 151.034 24.9267C155.286 24.9267 158.568 21.9104 158.568 17.9608C158.565 14.1612 155.852 11.5531 151.904 11.5531ZM150.991 21.4438C148.826 21.4438 147.226 19.9648 147.226 17.9608C147.226 15.936 148.804 14.457 150.991 14.457C153.136 14.457 154.719 15.936 154.719 17.9608C154.719 19.9648 153.116 21.4438 150.991 21.4438Z" fill="#3B175C"/>
<path d="M54.368 6.80294L50.0817 15.4437L44.2414 6.80294H39.6885L48.1655 19.3099L47.9322 19.7849C47.5656 20.5431 47.0824 20.9513 45.966 20.9513H42.9668V24.551H46.3909C49.0027 24.551 50.0566 23.8885 51.1481 21.7097L58.642 6.79883H54.368V6.80294Z" fill="#3B175C"/>
<path d="M95.7459 10.9316L95.0961 19.3974C94.9962 20.7223 94.5504 21.2055 93.4965 21.2055H92.5635V24.651H94.8337C97.3872 24.651 98.5203 23.4845 98.7035 21.0514L99.2034 14.4729H103.886V24.5344H107.735V10.9316H95.7459Z" fill="#3B175C"/>
<path d="M117.658 14.0269C119.216 14.0269 120.453 14.9018 121.041 16.0725L124.444 14.7893C123.494 12.2021 120.799 10.5273 117.579 10.5273C113.263 10.5273 110.006 13.6394 110.006 17.7306C110.006 21.8177 113.268 24.9341 117.579 24.9341C120.799 24.9341 123.494 23.2592 124.444 20.6719L121.041 19.3888C120.453 20.5554 119.216 21.4344 117.658 21.4344C115.492 21.4344 113.93 19.897 113.93 17.7349C113.93 15.5642 115.492 14.0269 117.658 14.0269Z" fill="#3B175C"/>
<path d="M136.466 10.9121L130.555 19.5611V10.9121H126.748V24.5356H130.959L136.833 15.9491V24.5356H140.64V10.9121H136.466Z" fill="#3B175C"/>
<path d="M86.8287 12.5661H86.6621C85.8955 11.2913 84.3335 10.5205 82.2506 10.5205C78.3433 10.5205 75.2441 13.7119 75.2441 17.7239C75.2441 21.7317 78.3433 24.9272 82.2506 24.9272C84.3335 24.9272 85.8914 24.1565 86.6621 22.8816H86.8287V24.5356H90.636V10.9122H86.8287V12.5661ZM83.0255 21.461C80.8594 21.461 79.1764 19.8279 79.1764 17.7239C79.1764 15.62 80.8385 13.9868 83.0255 13.9868C85.1499 13.9868 86.8329 15.62 86.8329 17.7239C86.8286 19.8069 85.1499 21.461 83.0255 21.461Z" fill="#3B175C"/>
<path fill-rule="evenodd" clip-rule="evenodd" d="M15.1721 0.0153666C15.366 0.0248229 15.5675 0.0378254 15.7779 0.0543741V2.93265C15.7779 15.6148 16.2614 21.0971 18.1361 29.5511C15.7407 30.1504 13.1999 30.1504 10.8086 29.5464C12.6958 21.0309 13.1828 15.5486 13.1828 2.93265V0.0543741C13.4351 0.0342793 13.6733 0.0200948 13.9014 0.0118204C14.103 0.00354613 14.2956 0 14.483 0C14.704 0 14.9322 0.00472818 15.1721 0.0153666ZM28.9565 16.0734C28.9565 11.1408 26.2698 6.80385 22.2331 4.33338L22.2875 7.68211C24.687 9.74478 26.2071 12.7448 26.2071 16.0734C26.2071 16.6278 26.164 17.1727 26.0812 17.7058C25.937 18.6349 25.674 19.5274 25.3117 20.369C23.5747 18.7189 22.3371 16.7779 21.567 14.486C20.6379 11.7117 20.421 8.67384 20.3879 4.96222L20.392 3.36646C20.142 3.2589 19.8885 3.15842 19.632 3.06386C19.0339 2.84518 18.4204 2.66433 17.7969 2.52485L17.801 4.9575C17.8885 17.7732 20.1089 23.0558 23.4122 27.0263C26.7905 24.4766 28.9565 20.5191 28.9565 16.0734ZM11.1597 4.95986L11.1638 2.52721C10.6863 2.63478 10.2146 2.76598 9.75187 2.91965C9.35056 3.05204 8.95576 3.20216 8.56864 3.36883L8.57278 4.96459C8.53554 8.67266 8.32278 11.7141 7.39369 14.4883C6.62772 16.7803 5.38599 18.7177 3.64897 20.3714C3.42497 19.8501 3.2388 19.3099 3.09518 18.7543C2.87355 17.8962 2.75357 16.999 2.75357 16.0758C2.75357 12.7424 4.26955 9.74714 6.67323 7.68447L6.72761 4.33574C2.68679 6.80148 0 11.1384 0 16.0758C0 20.5215 2.17023 24.479 5.54438 27.0286C8.85588 23.0629 11.0722 17.7756 11.1597 4.95986Z" fill="#3B175C"/>
</svg>
