<svg width="166" height="34" viewBox="0 0 166 34" fill="none" xmlns="http://www.w3.org/2000/svg">
<path d="M0.5 29.14H22.29V33.66H0.5V29.14ZM158.08 14.63L164.95 7.05H159.83L154.2 13.35V7.05H150.12V22.98H154.22V16.27L160.24 22.98H165.5L158.08 14.63ZM24.69 15.68C24.58 18.68 24.2 19.25 22.54 19.25V22.99H23.16C27.33 22.99 28.32 20.84 28.47 16.05L28.65 10.75H32.5V22.98H36.58V7.05H24.97L24.69 15.68ZM6.98 18.42H15.58L17.01 22.98H21.78L15.35 3.82C14.73 1.97 14.01 0.5 11.55 0.5C9.09 0.5 8.34 1.97 7.68 3.82L0.940001 22.98H5.42L6.98 18.42ZM11.34 5.5H11.45L14.33 14.58H8.27L11.34 5.5ZM106.65 9.31H102.1V4.81H112.66V0.81H97.82V22.98H106.65C111.54 22.98 114.35 20.54 114.35 16.08C114.35 11.85 111.5 9.31 106.65 9.31ZM106.44 18.97H102.1V13.21H106.44C108.7 13.21 109.97 14.21 109.97 16.09C109.97 17.97 108.7 18.97 106.44 18.97ZM66.09 6.68V0.78H62.02V6.68C59.8829 6.7505 57.8611 7.6663 56.3986 9.2262C54.9362 10.7862 54.1526 12.8628 54.22 15C54.1472 17.1416 54.928 19.2244 56.3908 20.7903C57.8535 22.3563 59.8784 23.277 62.02 23.35V29.35H66.1V23.35C67.1608 23.3151 68.2044 23.0714 69.1708 22.6326C70.1373 22.1939 71.0077 21.5688 71.7323 20.7932C72.4568 20.0175 73.0212 19.1066 73.3932 18.1125C73.7652 17.1184 73.9374 16.0607 73.9 15C73.9428 13.9386 73.7737 12.8793 73.4028 11.884C73.0318 10.8886 72.4663 9.9771 71.7393 9.2026C71.0123 8.4282 70.1383 7.8062 69.1684 7.3731C68.1984 6.94 67.152 6.7044 66.09 6.68ZM62.03 19.5C60.9502 19.3814 59.9603 18.8431 59.2738 18.0013C58.5872 17.1595 58.259 16.0816 58.36 15C58.272 13.9211 58.6049 12.85 59.2891 12.0112C59.9732 11.1723 60.9555 10.6308 62.03 10.5V19.5ZM66.11 19.5V10.5C67.1845 10.6308 68.1668 11.1723 68.8509 12.0112C69.5351 12.85 69.868 13.9211 69.78 15C69.8757 16.0805 69.5456 17.1556 68.86 17.9963C68.1745 18.8369 67.1877 19.3765 66.11 19.5ZM89.19 18.09V12.72C89.19 8.8 86.7 6.35 82.52 6.35C78.34 6.35 75.9 8.95 75.7 11.66H79.83C79.97 11.08 80.59 10.05 82.51 10.05C82.869 10.0038 83.233 10.0416 83.574 10.1606C83.916 10.2796 84.225 10.4763 84.477 10.7354C84.729 10.9944 84.918 11.3086 85.028 11.653C85.138 11.9975 85.166 12.3628 85.11 12.72H81.11C77.49 12.72 75.34 14.63 75.34 17.79C75.3118 18.5441 75.4422 19.2957 75.7228 19.9962C76.0035 20.6967 76.4281 21.3304 76.9692 21.8564C77.5102 22.3824 78.1557 22.7889 78.8639 23.0497C79.572 23.3104 80.327 23.4195 81.08 23.37C81.9301 23.4147 82.778 23.2492 83.549 22.8882C84.32 22.5271 84.99 21.9817 85.5 21.3C85.832 21.8615 86.316 22.3173 86.897 22.6146C87.477 22.912 88.13 23.0387 88.78 22.98H90.19V19.3C89.5 19.3 89.19 18.97 89.19 18.09ZM85.11 17.09C85.127 17.4839 85.06 17.8769 84.913 18.243C84.767 18.6091 84.545 18.9401 84.262 19.2141C83.978 19.4881 83.64 19.6989 83.269 19.8327C82.898 19.9664 82.503 20.02 82.11 19.99C80.64 19.99 79.48 19.46 79.48 17.87C79.48 16.28 80.77 16.05 81.86 16.05H85.11V17.09ZM46.74 11.89H43.81V7.05H39.73V22.98H46.81C51.24 22.98 52.81 20.1 52.81 17.38C52.83 13.87 50.63 11.89 46.74 11.89ZM46.44 19.5H43.81V15.5H46.44C47.85 15.5 48.7 16.14 48.7 17.5C48.7 18.86 47.89 19.5 46.44 19.5ZM129.92 18.09V12.72C129.92 8.8 127.43 6.35 123.25 6.35C119.07 6.35 116.63 8.95 116.43 11.66H120.56C120.7 11.08 121.32 10.05 123.24 10.05C123.599 10.0038 123.963 10.0416 124.304 10.1606C124.646 10.2796 124.955 10.4763 125.207 10.7354C125.459 10.9944 125.648 11.3086 125.758 11.653C125.868 11.9975 125.896 12.3628 125.84 12.72H121.84C118.22 12.72 116.07 14.63 116.07 17.79C116.042 18.5441 116.172 19.2957 116.453 19.9962C116.733 20.6967 117.158 21.3304 117.699 21.8564C118.24 22.3824 118.886 22.7889 119.594 23.0497C120.302 23.3104 121.057 23.4195 121.81 23.37C122.668 23.4231 123.526 23.2617 124.307 22.9004C125.087 22.539 125.765 21.989 126.28 21.3C126.607 21.8517 127.082 22.3012 127.651 22.598C128.22 22.8948 128.86 23.0271 129.5 22.98H130.91V19.3C130.2 19.3 129.92 18.97 129.92 18.09ZM125.86 17.09C125.875 17.4835 125.807 17.8757 125.66 18.2411C125.513 18.6065 125.291 18.9368 125.008 19.2105C124.725 19.4841 124.387 19.695 124.017 19.8294C123.647 19.9637 123.253 20.0184 122.86 19.99C121.39 19.99 120.23 19.46 120.23 17.87C120.23 16.28 121.52 16.05 122.61 16.05H125.86V17.09ZM142.95 12.98H137.32V7.05H133.24V22.99H137.32V16.71H142.95V22.98H147.03V7.05H142.95V12.98Z" fill="white"/>
</svg>
