<svg width="164" height="40" viewBox="0 0 164 40" fill="none" xmlns="http://www.w3.org/2000/svg">
<path fill-rule="evenodd" clip-rule="evenodd" d="M0.400391 7.50039C0.400391 3.60039 3.60039 0.400391 7.50039 0.400391H32.5004C36.4004 0.400391 39.6004 3.60039 39.6004 7.50039V32.5004C39.6004 36.4004 36.4004 39.6004 32.5004 39.6004H7.50039C3.60039 39.6004 0.400391 36.4004 0.400391 32.5004V7.50039ZM61.0005 25.9V18.7L57.5005 24.6H56.3005L52.8005 18.8V25.8H50.0005V14H52.3005L56.8005 21.4L61.2005 14H63.5005V26H61.0005V25.9ZM67.9005 25.5002C68.7005 25.9002 69.5005 26.1002 70.5005 26.1002C71.5005 26.1002 72.3005 25.9002 73.1005 25.5002C73.8005 25.1002 74.5005 24.5002 74.9005 23.8002C75.3005 23.1002 75.5005 22.3002 75.5005 21.4002C75.5005 20.5002 75.3005 19.7002 74.9005 19.0002C74.5005 18.3002 73.9005 17.7002 73.1005 17.3002C72.3005 16.9002 71.5005 16.7002 70.5005 16.7002C69.6005 16.7002 68.7005 16.9002 67.9005 17.3002C67.2005 17.7002 66.5005 18.3002 66.1005 19.0002C65.7005 19.7002 65.5005 20.5002 65.5005 21.4002C65.5005 22.3002 65.7005 23.1002 66.1005 23.8002C66.5005 24.5002 67.1005 25.1002 67.9005 25.5002ZM72.2005 23.2002C71.8005 23.7002 71.2005 23.9002 70.5005 23.9002C69.8005 23.9002 69.2005 23.7002 68.8005 23.2002C68.3005 22.7002 68.1005 22.1002 68.1005 21.3002C68.1005 20.6002 68.4005 19.9002 68.8005 19.5002C69.2005 19.0002 69.8005 18.8002 70.5005 18.8002C71.2005 18.8002 71.8005 19.0002 72.2005 19.5002C72.7005 19.9002 72.9005 20.5002 72.9005 21.3002C72.9005 22.1002 72.6005 22.7002 72.2005 23.2002ZM87.5005 23.7998V27.9998H85.0005V25.9998H78.5005V27.9998H76.0005V23.7998H76.4005C77.0005 23.7998 77.4005 23.4998 77.6005 22.7998C77.8005 22.1998 77.9005 21.1998 78.0005 19.9998L78.1005 16.7998H86.1005V23.7998H87.5005ZM80.4005 20.0998C80.4005 21.0998 80.3005 21.7998 80.2005 22.3998C80.1005 22.9998 79.9005 23.4998 79.6005 23.7998H83.5005V18.9998H80.5005L80.4005 20.0998ZM94.0006 26.4996L98.2006 16.6996L95.6006 16.7996L93.0006 22.9996L90.4006 16.5996H87.6006L91.6006 25.8996V25.9996C91.4006 26.3996 91.2006 26.6996 91.0006 26.8996C90.8006 27.0996 90.5006 27.1996 90.1006 27.1996C89.8632 27.1996 89.6884 27.137 89.4772 27.0613C89.4215 27.0414 89.3632 27.0205 89.3006 26.9996C89.0006 26.8996 88.8006 26.7996 88.6006 26.5996L87.6006 28.4996C88.0006 28.7996 88.3006 28.9996 88.8006 29.0996C89.2006 29.1996 89.7006 29.2996 90.2006 29.2996C91.0006 29.2996 91.8006 29.0996 92.4006 28.6996C93.0006 28.2996 93.6006 27.5996 94.0006 26.4996ZM107.5 25.9002H104.8V18.9002H101.9L101.8 20.5002C101.8 21.4169 101.684 22.2169 101.584 22.9002V22.9038C101.553 23.1136 101.524 23.3124 101.5 23.5002C101.3 24.3002 101 24.9002 100.6 25.4002C100.2 25.8002 99.6005 26.1002 98.9005 26.1002C98.6077 26.1002 98.3148 26.0466 97.9436 25.9787C97.8077 25.9538 97.6613 25.927 97.5005 25.9002L97.6005 23.7002H98.0005C98.4005 23.7002 98.7005 23.6002 98.9005 23.3002C99.1005 23.0002 99.2005 22.6002 99.3005 22.2002C99.3558 21.979 99.3805 21.6661 99.4085 21.3122C99.4311 21.026 99.4558 20.7131 99.5005 20.4002L99.6005 16.7002H107.5V25.9002ZM117.7 20.5002C117 20.0002 116.1 19.7002 114.9 19.7002H112.5V16.7002H109.9V25.9002H114.6C115.9 25.9002 116.9 25.6002 117.6 25.1002C118.3 24.5002 118.7 23.7002 118.7 22.7002C118.7 21.8002 118.3 21.0002 117.7 20.5002ZM115.6 23.8002C115.3 24.0002 114.9 24.1002 114.4 24.1002L112.7 24.0002V21.5002H114.4C115 21.5002 115.3 21.6002 115.6 21.8002C115.9 22.0002 116 22.4002 116 22.8002C116 23.2002 115.9 23.6002 115.6 23.8002ZM125.501 17.4C126.401 17.4 127.201 17.6 127.801 17.9C128.501 18.2 129.001 18.7 129.301 19.4C129.701 20 129.801 20.8 129.801 21.7C129.801 22.6 129.601 23.4 129.201 24C128.801 24.7 128.201 25.2 127.401 25.6C126.601 26 125.801 26.1 124.801 26.1C123.201 26.1 121.901 25.6 121.001 24.6C120.101 23.5 119.601 22.1 119.601 20C119.601 18.2 120.001 16.7 120.801 15.6C121.601 14.5 122.901 13.8 124.501 13.4L128.901 12.5L129.301 14.8L125.401 15.6C124.301 15.8 123.601 16.1 123.101 16.6C122.601 17.1 122.301 17.8 122.201 18.6C122.601 18.2 123.101 17.8 123.601 17.6C124.201 17.5 124.901 17.4 125.501 17.4ZM124.901 24.1C125.601 24.1 126.101 23.9 126.601 23.4C127.001 23 127.201 22.4 127.201 21.7C127.201 21 127.001 20.4 126.601 20C126.201 19.6 125.601 19.4 124.901 19.4C124.201 19.4 123.601 19.6 123.201 20C122.801 20.4 122.601 21 122.601 21.7C122.601 22.4 122.801 23 123.201 23.4C123.601 23.9 124.201 24.1 124.901 24.1ZM138.3 17.5996C137.5 16.8996 136.4 16.5996 135 16.5996C134.3 16.5996 133.5 16.6996 132.8 16.9996C132.1 17.1996 131.5 17.4996 131 17.7996L132 19.6996C132.3 19.3996 132.7 19.1996 133.2 19.0996C133.7 18.9996 134.2 18.8996 134.7 18.8996C135.4 18.8996 136 19.0996 136.3 19.3996C136.6 19.6996 136.8 20.0996 136.8 20.6996H134.7C133.4 20.6996 132.3 20.8996 131.7 21.3996C131 21.8996 130.7 22.5996 130.7 23.3996C130.7 23.8996 130.8 24.3996 131.1 24.7996C131.4 25.1996 131.8 25.5996 132.3 25.7996C132.9 26.0996 133.5 26.1996 134.2 26.1996C135.6 26.1996 136.5 25.6996 137 24.8996V25.9996H139.5V20.6996C139.5 19.2996 139.1 18.2996 138.3 17.5996ZM136 23.9996C135.6 24.1996 135.2 24.2996 134.8 24.2996C134.3 24.2996 134 24.1996 133.6 23.8996C133.3 23.6996 133.2 23.3996 133.2 23.0996C133.2 22.3996 133.8 21.9996 134.9 21.9996H136.7V22.9996C136.6 23.4996 136.3 23.7996 136 23.9996ZM141.601 16.7002H144.201V20.3002H148.201V16.7002H150.901V25.9002H148.201V22.5002H144.201V25.9002H141.601V16.7002ZM156.001 22.4998H157.401L159.901 25.9998H163.101L159.601 21.1998L162.801 16.7998H159.901L157.401 20.3998H156.001V16.7998H153.301V25.9998H156.001V22.4998Z" fill="white"/>
</svg>
