<svg width="121" height="38" viewBox="0 0 121 38" fill="none" xmlns="http://www.w3.org/2000/svg">
<g clip-path="url(#clip0_630_81)">
<path d="M24.93 0.679688L12.71 12.8897H24.93V37.3197L37.14 25.1397V0.679688H24.93Z" fill="white"/>
<path d="M12.71 37.3197L24.93 25.1097H12.71V0.679688L0.5 12.8597V37.3197H12.71ZM49.36 31.2097H55.77V12.2797H65.5V31.2097H71.91V6.7897H49.36V31.2097ZM111.65 15.9297H106.17V12.2797H118.37V6.7797H99.75V31.2097H111.95C116.84 31.2097 120.5 28.7597 120.5 23.5697C120.5 18.3797 116.84 15.9297 111.64 15.9297H111.65ZM111.03 25.9997H106.16V21.1397H111.03C112.54 21.1397 114.03 21.7397 114.03 23.5697C114.03 25.3997 112.5 25.9997 111.03 25.9997ZM87.64 25.9997C83.36 25.9997 80.95 22.8597 80.95 18.9997C80.95 15.8897 82.7 11.9997 87.51 11.9997C88.588 12.009 89.651 12.2547 90.624 12.7195C91.596 13.1843 92.455 13.8568 93.14 14.6897L97.04 10.7897C95.838 9.3515 94.334 8.1949 92.635 7.4018C90.937 6.6086 89.085 6.1983 87.21 6.1997C85.521 6.1551 83.841 6.4564 82.273 7.0851C80.705 7.7137 79.282 8.6564 78.091 9.8553C76.901 11.0541 75.968 12.4838 75.351 14.0563C74.733 15.6289 74.444 17.3112 74.5 18.9997C74.479 21.6928 75.313 24.3231 76.883 26.5116C78.452 28.7002 80.676 30.3342 83.233 31.1782C85.791 32.0222 88.55 32.0326 91.114 31.208C93.678 30.3834 95.914 28.7663 97.5 26.5897L93.58 22.6697C92.958 23.7016 92.077 24.5533 91.024 25.1408C89.972 25.7283 88.785 26.0312 87.58 26.0197" fill="white"/>
</g>
<defs>
<clipPath id="clip0_630_81">
<rect width="121" height="38" fill="white"/>
</clipPath>
</defs>
</svg>
