<svg width="172" height="33" viewBox="0 0 172 33" fill="none" xmlns="http://www.w3.org/2000/svg">
<g clip-path="url(#clip0_630_78)">
<path d="M29.3305 22.8491C28.9185 22.8491 28.6798 23.0963 28.6798 23.5435V27.076H23.2582V23.5435C23.2582 23.0986 23.0195 22.8491 22.6075 22.8491C22.2 22.8491 21.9568 23.0963 21.9568 23.5435V32.0603C21.9568 32.5052 22.2 32.7524 22.6075 32.7524C23.0195 32.7524 23.2582 32.5052 23.2582 32.0603V28.2895H28.6798V32.0603C28.6798 32.5052 28.9185 32.7524 29.3305 32.7524C29.738 32.7524 29.9767 32.5052 29.9767 32.0603V23.5435C29.9789 23.0963 29.738 22.8491 29.3305 22.8491ZM36.0242 27.685L39.7955 23.921C39.9734 23.7435 40.0499 23.5997 40.0499 23.3974C40.0499 23.1008 39.845 22.8491 39.4938 22.8491C39.3114 22.8491 39.1651 22.9121 39.0007 23.0739L35.315 26.7525C35.1079 26.9592 34.8985 27.0738 34.6058 27.0738H33.847V23.5413C33.847 23.0963 33.6084 22.8469 33.1963 22.8469C32.7888 22.8469 32.5457 23.0941 32.5457 23.5413V32.058C32.5457 32.5029 32.7888 32.7501 33.1963 32.7501C33.6084 32.7501 33.847 32.5029 33.847 32.058V28.2873H34.518C34.8084 28.2873 35.0178 28.4041 35.2249 28.6086L39.1381 32.5142C39.3114 32.685 39.4623 32.7501 39.6559 32.7501C40.0252 32.7501 40.239 32.4872 40.239 32.1771C40.239 31.9636 40.158 31.8131 39.9711 31.6266L36.0242 27.685ZM44.1679 11.1234C43.5825 11.4313 42.781 11.6515 42.0132 11.6515C40.7479 11.6515 39.9554 11.1055 39.9554 10.1527C39.9554 9.2943 40.6331 8.6291 42.0042 8.6291C42.727 8.6291 43.3664 8.7347 44.1679 8.9729V11.1234ZM42.1866 3.2157C41.0856 3.2157 40.0927 3.4966 39.4578 3.755C38.9219 3.973 38.6945 4.2831 38.6968 4.6966C38.7013 5.1842 39.0705 5.5415 39.5298 5.5415C39.7505 5.5415 39.9959 5.4561 40.2571 5.3527C40.6713 5.1864 41.3535 5.0067 42.0357 5.0067C43.551 5.0067 44.1679 5.5775 44.1679 6.7437V7.5302C43.2966 7.2965 42.5851 7.1932 41.7701 7.1932C39.2889 7.1932 38.0776 8.6044 38.0776 10.1527C38.0776 11.9437 39.4353 13.292 41.8399 13.292C43.7086 13.292 45.1316 12.6717 45.7012 12.2807C45.9736 12.092 46.0704 11.9122 46.0704 11.5459V6.7864C46.0682 4.337 44.6565 3.2157 42.1866 3.2157ZM65.922 9.5617C65.4762 9.5707 65.2262 9.8358 65.0574 10.1302C64.7151 10.865 63.9924 11.3841 63.004 11.3841C61.6081 11.3841 60.7863 10.5437 60.6714 9.301C60.6107 8.6358 60.6107 7.8673 60.6714 7.2022C60.7863 5.9572 61.6193 5.1168 63.004 5.1168C63.9924 5.1168 64.7084 5.6269 65.0574 6.3797C65.233 6.6651 65.4762 6.937 65.922 6.9415C66.4938 6.946 66.8788 6.5909 66.8788 6.0314C66.8788 5.7415 66.7685 5.4516 66.5929 5.1348C66.0188 4.0674 64.7714 3.2134 62.977 3.2134C60.5544 3.2134 58.9243 4.7393 58.7216 6.9213C58.6518 7.6471 58.6518 8.8493 58.7216 9.5774C58.9333 11.7594 60.5544 13.2897 62.977 13.2897C64.7714 13.2897 66.0188 12.4403 66.5996 11.3661C66.7753 11.047 66.8811 10.7594 66.8811 10.4695C66.8788 9.919 66.4916 9.5482 65.922 9.5617ZM21.7002 11.5167L18.3049 8.128L21.5268 4.9123C21.7767 4.6629 21.905 4.4157 21.905 4.1303C21.905 3.6561 21.5606 3.3033 21.0697 3.3033C20.7838 3.3033 20.5699 3.4067 20.293 3.6831L17.0193 6.9505C16.8414 7.1302 16.65 7.2314 16.3956 7.2314H15.7269V4.3415C15.7269 3.6853 15.3442 3.3033 14.7408 3.3033C14.1419 3.3033 13.7614 3.6853 13.7614 4.3415V12.1616C13.7614 12.8178 14.1441 13.2043 14.7408 13.2043C15.3442 13.2043 15.7269 12.8178 15.7269 12.1616V9.0403H16.2853C16.5397 9.0403 16.7311 9.1415 16.909 9.3212L20.4033 12.8066C20.6915 13.0942 20.9166 13.2066 21.2161 13.2066C21.7339 13.2066 22.0964 12.838 22.0964 12.3369C22.0964 12.038 21.9636 11.7774 21.7002 11.5167ZM54.8491 9.3032C54.7342 10.5504 53.9575 11.3931 52.5345 11.3931C51.7983 11.3931 50.8729 11.1684 50.4158 10.847V5.6606C50.8729 5.3348 51.796 5.11 52.5345 5.11C53.9575 5.11 54.7365 5.9572 54.8491 7.2044C54.9053 7.8314 54.9098 8.6246 54.8491 9.3032ZM52.5953 3.2157C50.8751 3.2157 49.4995 3.8224 48.9456 4.1483C48.4931 4.4157 48.4458 4.6269 48.4458 5.3797V15.402C48.4458 16.0537 48.8263 16.4402 49.4252 16.4402C50.0286 16.4402 50.4136 16.0537 50.4136 15.402V12.7863C51.0035 13.0717 51.9063 13.292 52.7664 13.292C55.0404 13.292 56.603 11.7796 56.8079 9.5976C56.8777 8.8628 56.8777 7.6516 56.8079 6.91C56.6075 4.7235 55.0427 3.2157 52.5953 3.2157ZM18.2959 30.9502C17.5754 31.3367 16.596 31.6198 15.6886 31.6198C14.0653 31.6198 13.1489 30.9322 13.1489 29.7434C13.1489 28.676 13.955 27.8783 15.6886 27.8783C16.5487 27.8783 17.276 28.0041 18.2959 28.3052V30.9502ZM15.9678 22.7637C14.8331 22.7637 13.7276 23.0716 13.1287 23.3435C12.7257 23.5188 12.5433 23.7053 12.5523 24.0266C12.5636 24.3592 12.8202 24.6221 13.1377 24.6221C13.293 24.6221 13.4799 24.5615 13.6623 24.4761C14.1216 24.2806 14.9884 24.0222 15.8372 24.0222C17.5169 24.0222 18.2959 24.7053 18.2959 26.2266V27.1322C17.2422 26.8266 16.4834 26.721 15.5738 26.721C13.1129 26.721 11.8633 28.1345 11.8633 29.7322C11.8633 31.6086 13.2773 32.8423 15.5175 32.8423C17.3683 32.8423 18.7845 32.1928 19.3068 31.8131C19.5185 31.6625 19.5792 31.5412 19.5792 31.2535V26.1929C19.5792 23.8514 18.2216 22.7637 15.9678 22.7637ZM6.48 31.3883H2.801V26.1817H6.48C8.405 26.1817 9.1976 27.1232 9.1976 28.7502C9.1976 30.4131 8.405 31.3883 6.48 31.3883ZM6.6466 24.9323H2.801V20.9143H9.2088C9.6366 20.9143 9.9315 20.6761 9.9315 20.2671C9.9315 19.8761 9.6366 19.6334 9.2088 19.6334H2.6367C1.9004 19.6334 1.4794 20.0424 1.4794 20.7862V31.5097C1.4794 32.2535 1.8982 32.6647 2.6367 32.6647H6.6444C9.1075 32.6647 10.535 31.2355 10.535 28.7389C10.535 26.3098 9.1098 24.9323 6.6466 24.9323ZM29.254 6.9437H32.4781C34.0024 6.9437 34.6823 7.719 34.6823 9.0561C34.6823 10.4156 34.0024 11.2268 32.4781 11.2268H29.254V6.9437ZM28.7676 13.1167H32.6898C35.2407 13.1167 36.7515 11.638 36.7515 9.0134C36.7515 6.537 35.2407 5.1527 32.6898 5.1527H29.254V1.9887H35.0268C35.6572 1.9887 36.067 1.618 36.067 1.0247C36.067 0.46067 35.6572 0.0876398 35.0268 0.0876398H28.7676C27.777 0.0876398 27.2344 0.62471 27.2344 1.618V11.5886C27.2321 12.5819 27.7747 13.1167 28.7676 13.1167ZM4.305 7.2359L6.1062 2.1078C6.176 1.9281 6.2346 1.8651 6.3697 1.8651C6.5025 1.8651 6.561 1.9281 6.6263 2.1078L8.4366 7.2359H4.305ZM12.2529 12.2583C12.2529 12.0762 12.2213 11.8987 12.1178 11.6246L8.4838 1.7236C8.0448 0.5146 7.4054 0 6.3877 0C5.3745 0 4.7306 0.5146 4.2938 1.7236L0.6351 11.6291C0.5225 11.9369 0.5 12.1212 0.5 12.265C0.5 12.7796 0.9098 13.2066 1.4794 13.2066C1.9455 13.2066 2.2944 12.9729 2.4881 12.4021L3.6724 9.0358H9.076L10.2693 12.4111C10.4584 12.9729 10.8074 13.2066 11.2667 13.2066C11.8453 13.2066 12.2529 12.7774 12.2529 12.2583Z" fill="white"/>
<path d="M170.947 15.4826C169.604 12.0821 166.288 10.2302 162.699 10.8783L155.323 12.2065C154.099 12.4269 153.286 13.5987 153.504 14.8232C153.724 16.0478 154.894 16.8616 156.117 16.6431L163.492 15.3149C165.247 14.9984 166.331 16.0497 166.76 17.1367C167.19 18.2256 167.115 19.7346 165.62 20.7048L154.795 27.7299C153.788 28.3818 152.564 28.427 151.516 27.8562C150.467 27.2853 149.838 26.2285 149.838 25.0322V2.2688C149.838 1.0236 148.832 0.0137782 147.589 0.0137782C146.345 0.0137782 145.339 1.0236 145.339 2.2688V25.0359C145.339 27.9108 146.844 30.4465 149.366 31.8199C150.538 32.4567 151.8 32.7751 153.057 32.7751C154.507 32.7751 155.952 32.3549 157.242 31.5166L168.067 24.4915C171.133 22.5021 172.29 18.8831 170.947 15.4826ZM132.87 10.8802L125.494 12.2084C124.272 12.4288 123.459 13.6006 123.677 14.8251C123.897 16.0497 125.067 16.8635 126.29 16.645L133.665 15.3168C135.422 15.0003 136.504 16.0515 136.935 17.1386C137.364 18.2275 137.29 19.7365 135.793 20.7067L124.968 27.7318C123.963 28.3836 122.739 28.4289 121.689 27.858C120.64 27.2872 120.013 26.2303 120.013 25.0341V7.7397C120.013 4.863 118.508 2.3272 115.986 0.953848C113.464 -0.417642 110.52 -0.304601 108.11 1.2572L80.8809 18.9264C77.8167 20.9139 76.6599 24.5329 78.003 27.9334C79.3441 31.332 82.6584 33.182 86.2509 32.5358L110.025 28.2555C111.248 28.0351 112.062 26.8633 111.842 25.6388C111.622 24.4142 110.452 23.5985 109.229 23.8189L85.4555 28.0992C83.6986 28.4157 82.617 27.3645 82.1882 26.2774C81.7574 25.1885 81.8308 23.6795 83.3281 22.7074L110.552 5.0419C111.554 4.392 112.781 4.3449 113.83 4.9157C114.88 5.4884 115.506 6.5453 115.506 7.7416V25.0359C115.506 27.9108 117.011 30.4465 119.534 31.8199C120.705 32.4567 121.969 32.7751 123.226 32.7751C124.676 32.7751 126.119 32.3549 127.409 31.5166L138.236 24.4915C141.299 22.504 142.455 18.885 141.114 15.4845C139.777 12.0821 136.459 10.234 132.87 10.8802Z" fill="white"/>
</g>
<defs>
<clipPath id="clip0_630_78">
<rect width="172" height="33" fill="white"/>
</clipPath>
</defs>
</svg>
