<svg width="109" height="36" viewBox="0 0 109 36" fill="none" xmlns="http://www.w3.org/2000/svg">
<path fill-rule="evenodd" clip-rule="evenodd" d="M20.75 10.125C20.75 15.717 16.217 20.25 10.625 20.25C5.03296 20.25 0.5 15.717 0.5 10.125C0.5 4.53296 5.03296 0 10.625 0C16.217 0 20.75 4.53296 20.75 10.125ZM10.625 33.75C5.02802 33.75 0.5 34.118 0.5 34.4861V35.2639C0.5 35.632 5.02802 36 10.625 36C16.222 36 20.75 35.632 20.75 35.2639V34.4861C20.7813 34.118 16.222 33.75 10.625 33.75ZM0.5 26.4375V27.5625C0.5 29.4269 5.03296 30.9375 10.625 30.9375C16.217 30.9375 20.75 29.4269 20.75 27.5625V26.4375C20.75 24.5731 16.217 23.0625 10.625 23.0625C5.03296 23.0625 0.5 24.5731 0.5 26.4375Z" fill="#F10D30"/>
<path fill-rule="evenodd" clip-rule="evenodd" d="M60.6796 24.6562C58.6812 24.6562 57.0311 24.0212 55.7303 22.782C54.3976 21.5109 53.7632 19.9222 53.7632 17.9843C53.7632 16.0463 54.3976 14.4576 55.6671 13.2184C56.9992 11.9473 58.6175 11.3112 60.5214 11.3112C60.5214 11.3112 63.0593 11.2793 64.7094 12.2329L66.6765 9.18311C66.6765 9.18311 64.4869 7.40332 60.4577 7.40332C57.2217 7.40332 54.5564 8.48328 52.5574 10.3586C50.4953 12.3285 49.4483 14.8707 49.4483 17.9843C49.4483 21.0659 50.4953 23.6082 52.5893 25.6099C54.5883 27.516 57.2535 28.5652 60.4577 28.5652C64.4869 28.5652 66.6765 26.7854 66.6765 26.7854L64.7094 23.7356C63.2812 24.5618 61.2191 24.6562 60.6796 24.6562ZM74.4488 28.184H70.2608V7.81641H87.2984V28.184H83.1423V11.566H74.4488V28.184ZM44.4611 16.6813C43.0966 15.442 41.225 14.807 38.8454 14.807H34.4668V11.566H45.0955V7.81641H30.2788V28.184H38.8454C41.225 28.184 43.0966 27.5797 44.4929 26.3405C45.8569 25.0693 46.5551 23.4807 46.5551 21.5109C46.5551 19.5729 45.8569 17.9524 44.4611 16.6813ZM41.3519 23.7037C40.6856 24.2124 39.7655 24.498 38.5279 24.498H34.4668V18.3336H38.5279C39.7336 18.3336 40.6537 18.6193 41.3201 19.1598C41.9864 19.7003 42.3352 20.4628 42.3352 21.4471C42.3352 22.4326 41.9864 23.1951 41.3519 23.7037ZM106.403 16.6813C105.039 15.442 103.167 14.807 100.787 14.807H96.4088V11.566H107.038V7.81641H92.2208V28.184H100.787C103.167 28.184 105.039 27.5797 106.434 26.3405C107.799 25.0693 108.497 23.4807 108.497 21.5109C108.497 19.5729 107.799 17.9524 106.403 16.6813ZM103.294 23.7037C102.628 24.2124 101.708 24.498 100.47 24.498H96.4088V18.3336H100.47C101.676 18.3336 102.596 18.6193 103.262 19.1598C103.618 19.4487 103.883 19.8014 104.053 20.2167C104.201 20.5792 104.277 20.989 104.277 21.4471C104.277 21.858 104.217 22.2294 104.1 22.5601C103.937 23.0237 103.664 23.4071 103.294 23.7037Z" fill="#10385C"/>
</svg>
