<svg width="152" height="24" viewBox="0 0 152 24" fill="none" xmlns="http://www.w3.org/2000/svg">
<path d="M0.5 14.53C0.5 19.25 3.15 24 9.07 24C14.99 24 17.64 19.25 17.64 14.53C17.64 11.31 16.55 7.6 14.74 4.61C12.98 1.72 10.86 0 9.07 0C7.28 0 5.16 1.72 3.41 4.61C1.59 7.61 0.5 11.31 0.5 14.53ZM61.36 7.07H55.36V1.29H73.79V7.08H67.79V22.72H61.36V7.07V7.07ZM87.5 7.07H96.93V1.29H87.5C78.84 1.29 74.21 5.6 74.21 12C74.21 18.41 78.84 22.71 87.5 22.71H96.93V16.92H87.5C83.49 16.92 80.85 15.49 80.85 11.99C80.85 8.5 83.49 7.07 87.5 7.07ZM38.85 14.08L42.28 1.29H53.64V22.72H47.21V5.27L42.54 22.71H35.17L30.5 5.28V22.71H24.07V1.29H35.43L38.85 14.08ZM112.94 7.5H110.67V9.6H112.94C113.51 9.6 113.86 9.3 113.86 8.76V8.37C113.85 7.81 113.56 7.5 112.94 7.5ZM113.51 12H107.64V1.29H116.27V3.85H110.66V5.25H113.5C115.88 5.25 117.03 6.43 117.03 8.51C117.04 10.7 115.89 12 113.51 12ZM124.02 7.62H121.63L122.83 3.66L124.02 7.62ZM128.62 12L125.31 1.29H120.81L117.5 12H120.33L120.94 9.95H124.73L125.35 12H128.62V12ZM136.27 12V7.85H132.81V12H129.71V1.29H132.81V5.22H136.27V1.29H139.38V12H136.27ZM144.89 5.21H144.35V1.29H141.25V12H144.35V7.85H144.8L147.67 12H151.26L147.38 6.39L150.95 1.28H147.67L144.89 5.21Z" fill="#E30600"/>
</svg>
