<svg width="138" height="27" viewBox="0 0 138 27" fill="none" xmlns="http://www.w3.org/2000/svg">
<path fill-rule="evenodd" clip-rule="evenodd" d="M128.454 8.9956C128.261 7.77479 127.374 7.08934 126.24 6.68516C124.294 5.99025 122.28 5.95244 120.244 6.11671C118.364 6.26798 116.545 6.63907 114.791 7.53725C114.466 5.7858 114.154 4.10644 113.837 2.40818C115.38 1.66128 116.929 1.24528 118.521 0.96519C121.925 0.368375 125.337 0.275012 128.711 1.10583C132.269 1.98273 134.768 3.98472 135.458 7.66725C135.628 8.57724 135.621 9.95405 135.621 9.95405V18.2267C135.621 18.586 135.666 19.3542 135.689 19.7123C135.815 21.6244 135.991 21.8112 138 22.1007V26.0373C136.017 26.5242 133.98 26.7807 131.964 25.8565C130.83 25.3377 130.308 24.3769 130.059 23.2423C130.027 23.0935 130.011 22.9411 129.992 22.758V22.7577V22.7542C129.983 22.6593 129.972 22.5562 129.958 22.4411C127.524 25.8435 124.041 26.679 120.212 26.4699C115.923 26.2359 112.63 23.435 112.023 20.1306C111.037 14.7534 113.826 10.7364 119.394 9.92569C122.914 9.41278 123.923 9.63024 128.473 11.1359C128.473 10.9082 128.483 10.6812 128.491 10.4553C128.51 9.96023 128.529 9.47124 128.454 8.9956ZM128.334 15.8335C127.166 15.0524 125.838 14.6423 124.45 14.4709C123.007 14.2925 121.583 14.3858 120.359 15.3053C119.236 16.1491 118.811 17.4893 119.222 18.8708C119.538 19.9333 120.651 20.7653 121.963 20.8858C123.228 21.004 124.455 20.8173 125.623 20.3339C127.719 19.4653 128.54 18.0944 128.334 15.8335ZM39.9737 26.4994C36.3334 26.5207 33.0606 25.4913 30.3447 23.1596C27.3324 20.5738 26.1428 17.208 26.1725 13.3931C26.1987 10.2282 27.0743 7.34935 29.2692 4.91718C31.2381 2.73673 33.7435 1.4391 36.6677 0.849377C40.3401 0.108381 43.8746 0.524379 47.1271 2.30656C51.2291 4.55554 53.255 8.07853 53.5049 12.5635C53.7249 16.5084 52.7423 20.0621 49.698 22.8972C46.9963 25.4133 43.6831 26.4616 39.9737 26.4994ZM40.0618 6.87781C36.9782 6.95108 34.8142 8.54298 33.9874 11.1642C33.4794 12.7797 33.5115 14.3823 34.0183 15.9978C34.7547 18.3437 36.3857 19.7843 38.8697 20.1602C41.3858 20.5395 43.5474 19.7371 44.9227 17.6169C46.4871 15.2025 46.5168 12.6237 45.2689 10.0699C44.2006 7.88235 42.2971 6.90381 40.0618 6.87781ZM91.6034 15.8637H95.1724L95.7553 15.9937L96.5775 17.4448L96.5904 17.4676C98.3063 20.4966 100.021 23.5237 101.707 26.5H109.448C109.367 26.3028 109.298 26.1166 109.232 25.9404C109.101 25.5898 108.985 25.2784 108.82 24.9967C107.496 22.7329 106.162 20.4754 104.829 18.218L104.82 18.2027L104.814 18.1923C104.085 16.9583 103.357 15.7243 102.629 14.4892C102.503 14.277 102.389 14.0563 102.267 13.8182L102.266 13.8176C102.21 13.7086 102.152 13.596 102.09 13.4788C107.117 10.5467 108.161 5.84194 108.016 0.500145H101.121C101.121 2.59586 100.773 3.82846 100.364 5.27709V5.2772L100.364 5.27816C100.311 5.46301 100.258 5.65137 100.205 5.84548C99.6657 7.80375 98.3262 9.11201 96.412 9.77501C95.3518 10.142 94.2184 10.0761 93.0567 10.0087C92.5761 9.98076 92.0906 9.95258 91.6034 9.95465V0.500145H84.4655V26.4775L91.6034 26.5V15.8637ZM72.6457 0.500145H79.7075V26.5H72.5767V18.1623C72.1558 18.259 71.7462 18.3633 71.3435 18.4659C70.4909 18.6831 69.6687 18.8926 68.834 19.0049C65.597 19.4399 62.5146 19.0439 59.8747 16.8257C57.8333 15.1097 56.6377 12.8087 56.276 10.1981C56.0304 8.42767 56.0098 6.10298 55.989 3.76769V3.76765C55.9792 2.66409 55.9694 1.55816 55.9358 0.507236L63.0523 0.500145V1.68196V7.59102C63.0523 10.3742 65.5209 12.57 68.2083 12.609C69.8679 12.6326 70.8362 12.2308 72.5612 11.1435L72.6457 0.500145ZM8.32759 26.5H15.4655V7.59102H23.7931V0.500145H0V7.59102H8.32759V26.5Z" fill="#231F20"/>
</svg>
